:SAMPLES-PER-SECOND 30
:FULLY-SPECIFIED
:DEGREES
427
root  1.64154 34.1123 19.9283 5.27504 30.2382 -1.98488
LeftUpLeg  -5.88189 10.8431 3.89106
LeftLeg  13.2328 12.2316 2.0401
LeftFoot  -3.4382 -0.0227312 -0.757376
LeftToes  -16.693 1.92152e-006 4.03786e-008
Spine  1.34663 0.219288 -0.345416
Spine1  2.47492 0.374148 -0.48368
RightShoulder  0.0229122 2.93104 6.60579
RightArm  -24.949 -16.2547 73.4828
RightForeArm  23.9927 39.1855 8.26964
RightHand  1.30323 -12.2064 -11.7668
LeftShoulder1  0.0734662 0.255125 -10.3292
LeftArm  -18.011 16.1348 -66.5852
LeftForeArm  28.011 -13.9521 -2.5062
LeftHand  0.205297 5.61337 3.74565
HEad  -3.27976 -18.045 -0.439858
RightUpLeg  -11.1992 -6.94031 -4.44929
RightLeg  10.1141 5.09731 0.575476
RightFoot  4.418 -0.00495829 0.444201
RightToes  -33.3358 -0.167553 -0.271946
428
root  1.69691 34.1124 19.9245 5.15457 30.5713 -2.01086
LeftUpLeg  -5.83048 10.6904 3.86524
LeftLeg  13.3286 12.0528 2.03127
LeftFoot  -3.56083 -0.0239767 -0.771346
LeftToes  -16.5392 1.92152e-006 4.03786e-008
Spine  1.29645 0.26495 -0.434102
Spine1  2.37915 0.466985 -0.650306
RightShoulder  0.0234477 2.8732 6.57794
RightArm  -24.7442 -16.4063 74.0537
RightForeArm  25.1973 37.6206 7.81355
RightHand  1.18891 -11.9058 -10.9889
LeftShoulder1  0.075074 0.249136 -10.3563
LeftArm  -18.5561 16.2783 -66.1917
LeftForeArm  27.9546 -13.8586 -2.48876
LeftHand  0.207667 5.61091 3.85497
HEad  -2.95952 -19.0626 -0.298502
RightUpLeg  -10.996 -6.88848 -4.54321
RightLeg  10.1193 4.71557 0.532983
RightFoot  4.43383 -0.00315045 0.416926
RightToes  -33.4747 -0.168517 -0.272451
429
root  1.75678 34.1089 19.9196 5.01689 30.9297 -2.01585
LeftUpLeg  -5.77273 10.4299 3.81213
LeftLeg  13.4738 11.9694 2.04835
LeftFoot  -3.7033 -0.0250861 -0.795739
LeftToes  -16.4494 1.92152e-006 4.03786e-008
Spine  1.27778 0.284179 -0.521654
Spine1  2.34351 0.503198 -0.812439
RightShoulder  0.0240897 2.8722 6.60506
RightArm  -25.1916 -16.3757 74.6317
RightForeArm  26.3709 35.0117 7.09546
RightHand  1.10673 -11.7176 -10.3784
LeftShoulder1  0.0764725 0.182087 -10.3528
LeftArm  -19.0839 16.3149 -65.8731
LeftForeArm  27.8161 -13.8158 -2.48083
LeftHand  0.210314 5.5964 3.97922
HEad  -2.84161 -19.9582 -0.165626
RightUpLeg  -10.7975 -7.0851 -4.66043
RightLeg  10.2201 4.56487 0.524139
RightFoot  4.34489 -0.00196246 0.399435
RightToes  -33.2526 -0.169621 -0.272972
430
root  1.79805 34.1014 19.9136 4.90423 31.2086 -2.03639
LeftUpLeg  -5.76197 10.3858 3.80804
LeftLeg  13.6438 11.707 2.03956
LeftFoot  -3.88295 -0.0267171 -0.815418
LeftToes  -16.2835 1.92152e-006 4.03786e-008
Spine  1.25503 0.293946 -0.582152
Spine1  2.29724 0.513527 -0.913475
RightShoulder  0.0248133 2.93809 6.71386
RightArm  -25.8949 -16.2133 75.0238
RightForeArm  27.0976 31.4894 6.19765
RightHand  1.09436 -11.7131 -10.263
LeftShoulder1  0.0776694 0.155973 -10.4109
LeftArm  -19.3622 16.2146 -65.5757
LeftForeArm  27.7873 -13.7884 -2.47574
LeftHand  0.210464 5.61453 3.97761
HEad  -2.69816 -20.6055 -0.196796
RightUpLeg  -10.6654 -6.97172 -4.74209
RightLeg  10.3198 4.19067 0.488709
RightFoot  4.31723 6.73583e-006 0.369947
RightToes  -33.5902 -0.17081 -0.273508
431
root  1.8459 34.0937 19.9056 4.81152 31.534 -2.03964
LeftUpLeg  -5.75112 10.3512 3.77525
LeftLeg  13.7736 11.4134 2.01555
LeftFoot  -4.02669 -0.0289741 -0.8242
LeftToes  -16.1892 1.92152e-006 4.03786e-008
Spine  1.23728 0.273143 -0.619112
Spine1  2.25898 0.458225 -0.965426
RightShoulder  0.0255753 3.06699 6.88402
RightArm  -26.9937 -16.054 75.1984
RightForeArm  27.5993 27.301 5.21681
RightHand  1.11603 -11.8425 -10.3539
LeftShoulder1  0.0786724 0.135409 -10.4615
LeftArm  -19.5124 16.0384 -65.4185
LeftForeArm  27.8264 -13.7798 -2.47412
LeftHand  0.212974 5.56419 4.08343
HEad  -2.55969 -21.1103 -0.289897
RightUpLeg  -10.5418 -7.02224 -4.84514
RightLeg  10.4405 3.93116 0.466935
RightFoot  4.25957 0.00153921 0.347334
RightToes  -33.8143 -0.172033 -0.274055
432
root  1.88931 34.0854 19.8896 4.72302 31.7745 -2.02091
LeftUpLeg  -5.75644 10.2863 3.71624
LeftLeg  13.9555 11.2215 2.01856
LeftFoot  -4.1685 -0.0305563 -0.839612
LeftToes  -16.2327 1.92152e-006 4.03786e-008
Spine  1.24077 0.271872 -0.653456
Spine1  2.26252 0.441356 -1.01304
RightShoulder  0.0270814 3.3731 7.07345
RightArm  -28.8234 -15.9905 75.2368
RightForeArm  28.4247 22.7481 4.2338
RightHand  1.12445 -12.0612 -10.2381
LeftShoulder1  0.079489 0.11619 -10.492
LeftArm  -19.6591 15.7783 -65.3654
LeftForeArm  27.7174 -13.8482 -2.48692
LeftHand  0.214717 5.5039 4.14604
HEad  -2.54867 -21.512 -0.265771
RightUpLeg  -10.4373 -6.85325 -4.96834
RightLeg  10.552 3.52993 0.42641
RightFoot  4.22374 0.00367434 0.315427
RightToes  -34.0382 -0.173235 -0.274611
433
root  1.92987 34.0685 19.8736 4.65165 31.9518 -1.99567
LeftUpLeg  -5.82503 10.2119 3.6485
LeftLeg  14.2737 11.0842 2.0573
LeftFoot  -4.41547 -0.0346234 -0.883432
LeftToes  -16.0959 1.92152e-006 4.03786e-008
Spine  1.25878 0.298912 -0.671491
Spine1  2.28398 0.496904 -1.06004
RightShoulder  0.0371181 3.65891 7.35778
RightArm  -30.6233 -16.0453 75.0361
RightForeArm  29.5993 18.2788 3.33288
RightHand  1.15167 -12.4142 -10.1842
LeftShoulder1  0.080127 0.135753 -10.5101
LeftArm  -19.7189 15.4973 -65.3841
LeftForeArm  27.5174 -14.0617 -2.52689
LeftHand  0.214441 5.49831 4.14706
HEad  -3.0358 -21.8531 -0.166286
RightUpLeg  -10.4235 -6.74114 -5.08426
RightLeg  10.8056 3.23894 0.405907
RightFoot  4.06999 0.00567832 0.285586
RightToes  -33.9769 -0.174363 -0.275175
434
root  1.96223 34.0449 19.8413 4.61516 32.111 -1.94853
LeftUpLeg  -5.95278 10.1318 3.55331
LeftLeg  14.6106 10.9594 2.10069
LeftFoot  -4.66642 -0.0379096 -0.930405
LeftToes  -16.0225 1.92152e-006 4.03786e-008
Spine  1.3114 0.303969 -0.67235
Spine1  2.36771 0.49302 -1.07475
RightShoulder  0.0512322 3.9863 7.52093
RightArm  -32.8325 -16.5529 74.923
RightForeArm  31.3354 15.6784 2.8307
RightHand  1.17897 -12.7557 -10.1432
LeftShoulder1  0.080594 0.205956 -10.516
LeftArm  -19.6814 15.1337 -65.5009
LeftForeArm  27.2656 -14.3572 -2.58229
LeftHand  0.213869 5.46082 4.12174
HEad  -4.77153 -22.2205 0.129188
RightUpLeg  -10.5292 -6.7222 -5.21689
RightLeg  11.1925 3.06249 0.404848
RightFoot  3.87755 0.00730499 0.261597
RightToes  -34.155 -0.175365 -0.275745
435
root  1.99399 34.0297 19.8054 4.65821 32.2503 -1.87027
LeftUpLeg  -6.05227 10.2739 3.42974
LeftLeg  14.7276 10.6572 2.06584
LeftFoot  -4.80703 -0.0389341 -0.936427
LeftToes  -15.9816 1.92152e-006 4.03786e-008
Spine  1.3713 0.284049 -0.6711
Spine1  2.48394 0.426236 -1.06385
RightShoulder  0.0590114 4.22206 7.6802
RightArm  -34.59 -17.3792 74.7462
RightForeArm  32.7158 14.1551 2.54251
RightHand  1.22782 -13.262 -10.1574
LeftShoulder1  0.0808977 0.238518 -10.5511
LeftArm  -19.6258 14.8602 -65.6364
LeftForeArm  26.9126 -14.8363 -2.67244
LeftHand  0.214548 5.39333 4.17739
HEad  -7.35546 -22.6101 0.581344
RightUpLeg  -10.6224 -6.72056 -5.36618
RightLeg  11.3908 2.90408 0.394184
RightFoot  3.81866 0.00849244 0.244389
RightToes  -34.5112 -0.176187 -0.276317
436
root  2.02152 34.026 19.7603 4.73913 32.3132 -1.80229
LeftUpLeg  -6.09281 10.386 3.29287
LeftLeg  14.6052 10.468 2.00654
LeftFoot  -4.81528 -0.0388491 -0.923955
LeftToes  -15.8435 1.92152e-006 4.03786e-008
Spine  1.42288 0.25767 -0.662392
Spine1  2.59393 0.343387 -1.02955
RightShoulder  0.0626409 4.42193 7.79192
RightArm  -35.5872 -18.3824 74.5303
RightForeArm  33.4547 13.2016 2.36424
RightHand  1.25533 -13.5054 -10.1974
LeftShoulder1  0.0810457 0.279539 -10.5775
LeftArm  -19.3932 14.6594 -65.7972
LeftForeArm  26.4049 -15.3689 -2.77318
LeftHand  0.212663 5.33127 4.18992
HEad  -10.2065 -22.928 0.975221
RightUpLeg  -10.706 -6.63731 -5.50129
RightLeg  11.4059 2.74832 0.373852
RightFoot  3.88655 0.00933859 0.232408
RightToes  -34.6218 -0.176892 -0.27689
437
root  2.04149 34.03 19.7069 4.84206 32.3883 -1.73442
LeftUpLeg  -6.14781 10.367 3.14657
LeftLeg  14.4212 10.3979 1.95889
LeftFoot  -4.74236 -0.0374726 -0.90494
LeftToes  -15.7955 1.92152e-006 4.03786e-008
Spine  1.45665 0.213248 -0.659917
Spine1  2.67457 0.228737 -1.00672
RightShoulder  0.0617469 4.49448 7.85055
RightArm  -35.9507 -19.4376 74.3766
RightForeArm  33.8833 12.7219 2.27506
RightHand  1.25681 -13.5829 -10.1493
LeftShoulder1  0.0810456 0.264933 -10.5491
LeftArm  -19.1615 14.5358 -65.9922
LeftForeArm  26.1294 -15.8139 -2.8577
LeftHand  0.208349 5.18232 4.2258
HEad  -12.2895 -23.2162 1.45683
RightUpLeg  -10.7338 -6.59133 -5.62479
RightLeg  11.2164 2.61908 0.347547
RightFoot  4.07675 0.00975544 0.226988
RightToes  -34.719 -0.177573 -0.277462
438
root  2.0608 34.0418 19.6607 4.98455 32.5038 -1.66024
LeftUpLeg  -6.17226 10.4303 3.00132
LeftLeg  14.0831 10.2111 1.86215
LeftFoot  -4.59106 -0.034436 -0.859956
LeftToes  -15.6622 1.92152e-006 4.03786e-008
Spine  1.43222 0.136143 -0.666095
Spine1  2.64132 0.0564861 -1.00496
RightShoulder  0.0578413 4.54423 7.75994
RightArm  -36.2051 -20.5383 74.4153
RightForeArm  34.2297 12.5744 2.24753
RightHand  1.2493 -13.5881 -10.0828
LeftShoulder1  0.0809052 0.25581 -10.4626
LeftArm  -18.9145 14.5123 -66.2103
LeftForeArm  25.9224 -16.092 -2.91072
LeftHand  0.206313 5.13331 4.22435
HEad  -13.0023 -23.404 1.903
RightUpLeg  -10.7138 -6.65992 -5.73473
RightLeg  10.8864 2.53875 0.322098
RightFoot  4.33092 0.00976353 0.227776
RightToes  -34.8379 -0.178223 -0.27803
439
root  2.07896 34.0524 19.6252 5.10845 32.5297 -1.59637
LeftUpLeg  -6.18393 10.5718 2.87713
LeftLeg  13.8115 10.0481 1.78387
LeftFoot  -4.4441 -0.0317619 -0.818567
LeftToes  -15.6341 1.92152e-006 4.03786e-008
Spine  1.38918 0.0827961 -0.690106
Spine1  2.56839 -0.061315 -1.04265
RightShoulder  0.0525375 4.44548 7.6242
RightArm  -36.3227 -21.374 74.5314
RightForeArm  34.4595 12.5049 2.23451
RightHand  1.22308 -13.4709 -9.95391
LeftShoulder1  0.0806321 0.223864 -10.3906
LeftArm  -18.7787 14.4827 -66.3809
LeftForeArm  25.9034 -16.1836 -2.92822
LeftHand  0.20532 5.11648 4.22281
HEad  -12.3859 -23.4232 2.11861
RightUpLeg  -10.6929 -6.58999 -5.8271
RightLeg  10.5768 2.39987 0.291422
RightFoot  4.55584 0.0101105 0.223132
RightToes  -34.9199 -0.178835 -0.278593
440
root  2.09771 34.057 19.5891 5.17033 32.5102 -1.54363
LeftUpLeg  -6.19717 10.6355 2.76428
LeftLeg  13.6932 9.99738 1.7538
LeftFoot  -4.42025 -0.030017 -0.809178
LeftToes  -15.4603 1.92152e-006 4.03786e-008
Spine  1.33703 0.0381511 -0.717781
Spine1  2.47043 -0.160009 -1.08748
RightShoulder  0.0480672 4.30109 7.48182
RightArm  -36.3349 -22.049 74.6574
RightForeArm  34.5733 12.6605 2.26315
RightHand  1.20218 -13.4361 -9.80469
LeftShoulder1  0.0802339 0.284914 -10.3969
LeftArm  -18.7019 14.3987 -66.508
LeftForeArm  25.9158 -16.1366 -2.91923
LeftHand  0.202393 5.17441 4.14634
HEad  -10.9072 -23.3136 2.11858
RightUpLeg  -10.6742 -6.43038 -5.9294
RightLeg  10.3731 2.24876 0.265069
RightFoot  4.7341 0.0105909 0.216212
RightToes  -35.0438 -0.179399 -0.279148
